<?xml version="1.0" encoding="UTF-8" standalone="no"?>
<svg width="50px" height="50px" viewBox="0 0 50 50" version="1.1" xmlns="http://www.w3.org/2000/svg" xmlns:xlink="http://www.w3.org/1999/xlink">
  <style type="text/css">
  <![CDATA[
  g { display: none; fill: #fff; }
  g:target { display: block; }
  ]]>
  </style>
  <g id="github">
    <path fill-rule="evenodd" d="M25,0c-13.807,0-25,11.193-25,25s11.193,25,25,25,25-11.193,25-25-11.193-25-25-25zm0,3c12.15,0,22,9.85,22,22s-9.85,22-22,22-22-9.85-22-22,9.85-22,22-22zm8.094,9.156c-1.104,0.016-3.064,1.02-4.188,1.75-2.095-0.602-6.527-0.543-8.187,0.156-3.064-2.155-4.688-1.812-4.688-1.812s-1.021,1.832-0.25,4.531c-1.008,1.263-1.75,2.164-1.75,4.531,0,1.334,0.14,2.52,0.5,3.563-0.044,0,0.486,1.125,0.5,1.125,1.151,2.054,3.35,3.303,7.094,3.656-0.534,0.399-1.161,1.188-1.25,2.063-0.672,0.427-2.043,0.544-3.094,0.219-1.472-0.457-2.014-3.315-4.219-2.907-0.477,0.089-0.381,0.394,0.032,0.657,0.672,0.427,1.324,0.955,1.812,2.093,0.375,0.874,1.135,2.469,3.625,2.469,0.988,0,1.688-0.125,1.688-0.125v3.063c0,0.999-1.344,1.3-1.344,1.781,0,0.19,0.447,0.219,0.813,0.219,0.721,0,2.218-0.586,2.218-1.626v-4.124c0-1.062,0.594-1.376,0.594-1.376s0.085,5.678-0.125,6.438c-0.247,0.893-0.687,0.758-0.687,1.156,0,0.593,1.806,0.145,2.406-1.156,0.463-1.013,0.25-6.594,0.25-6.594h0.468s0.048,2.555,0.032,3.719c-0.018,1.205-0.103,2.719,0.625,3.437,0.478,0.473,2.031,1.32,2.031,0.563,0-0.44-0.844-0.808-0.844-2v-5.469c0.679,0,0.563,1.782,0.563,1.782l0.062,3.374s-0.149,1.177,1.344,1.688c0.527,0.181,1.666,0.272,1.719-0.031,0.053-0.305-1.363-0.774-1.375-1.719-0.008-0.576,0-0.901,0-3.406,0-2.506-0.339-3.45-1.531-4.188,3.681-0.372,5.982-1.259,7.093-3.656,0.087,0.003,0.454-1.125,0.407-1.125,0.249-0.905,0.379-1.982,0.406-3.25-0.007-3.438-1.71-4.648-2.032-5.219,0.475-2.602-0.055-3.781-0.312-4.187-0.119-0.042-0.249-0.065-0.406-0.063z"/>
  </g>
  <g id="googleplus">
    <path fill-rule="evenodd" d="M25,0 C11.1928806,0 0,11.1928806 0,25 C0,38.8071194 11.1928806,50 25,50 C38.8071194,50 50,38.8071194 50,25 C50,11.1928806 38.8071194,0 25,0 Z M25,3 C12.8497349,3 3,12.8497349 3,25 C3,37.1502651 12.8497349,47 25,47 C37.1502651,47 47,37.1502651 47,25 C47,12.8497349 37.1502651,3 25,3 Z M38.2449877,22.1097512 L38.2449877,27.3881872 L36.0036768,27.3881872 L36.0036768,22.1097512 L30.7739796,22.1097512 L30.7739796,19.9128403 L36.0036768,19.9128403 L36.0036768,14.6807808 L38.2449877,14.6807808 L38.2449877,19.9128403 L42.2375586,19.9128403 C42.5324436,20.6254301 42.7875249,21.3586918 43,22.1097512 L38.2449877,22.1097512 Z M11.7255525,37.2757943 C14.6396541,35.4919506 18.5644269,35.2563486 20.6868362,35.1217189 C20.0299,34.2802832 19.2718967,33.3883614 19.2718967,31.9242632 C19.2718967,31.1333137 19.5077199,30.6621097 19.7435432,30.1067621 C19.2213631,30.1572483 18.7160276,30.2077344 18.2443811,30.2077344 C13.2752481,30.2077344 10.4622136,26.5054173 10.4622136,22.8535864 C10.4622136,20.699511 11.4560402,18.3064679 13.4605378,16.5747932 C16.1388163,14.3752803 19.3224302,14 21.849108,14 L31.501017,14 L28.5026927,15.6845543 L25.6054356,15.6845543 C26.6834848,16.5747932 28.9238057,18.4478291 28.9238057,22.0121507 C28.9238057,25.4788658 26.952997,27.1112511 24.9990329,28.6594927 C24.3757857,29.2653264 23.6851605,29.9216463 23.6851605,30.9481978 C23.6851605,31.9747494 24.3757857,32.5469257 24.8979658,32.9676435 L26.5824176,34.2802832 C28.6542934,35.996812 30.5240349,37.5955399 30.5240349,40.8266529 C30.5240349,42.9574523 29.5287217,45.0961123 27.5894278,46.7373863 C26.5459915,46.9073414 25.4755787,46.9970613 24.3847411,47 C26.3539444,46.1370063 27.37411,44.55802 27.37411,42.6609828 C27.37411,40.2713054 25.8412588,39.0091518 22.2702209,36.468016 C21.8996415,36.4343586 21.6638183,36.4343586 21.1921718,36.4343586 C20.7710588,36.4343586 18.2443811,36.5185022 16.2735724,37.174822 C15.2460568,37.5450537 12.2477325,38.6725775 12.2477325,42.0046629 C12.2477325,42.3667791 12.2863178,42.7178526 12.3616005,43.0559755 C7.42272978,39.3956824 9.56224074,39.9122538 9,39.9122529 C9.5622407,38.9676509 10.4340377,38.0389613 11.7255525,37.2757943 Z M18.9013173,15.5448759 C17.688512,15.5448759 16.3746395,16.1540754 15.6166362,17.0914348 C14.8249438,18.0742317 14.5891206,19.3363852 14.5891206,20.5480526 C14.5891206,23.6950221 16.4083286,28.8950947 20.451013,28.8950947 C21.6132847,28.8950947 22.8766236,28.3229185 23.6346269,27.582455 C24.7126761,26.5054173 24.7968987,25.0076618 24.7968987,24.1662261 C24.7968987,20.7836546 22.792401,15.5448759 18.9013173,15.5448759 Z M18.9013173,15.5448759"/>
  </g>
  <g id="email">
    <path fill-rule="evenodd" d="M25,0 C11.1928806,0 0,11.1928806 0,25 C0,38.8071194 11.1928806,50 25,50 C38.8071194,50 50,38.8071194 50,25 C50,11.1928806 38.8071194,0 25,0 Z M25,3 C12.8497349,3 3,12.8497349 3,25 C3,37.1502651 12.8497349,47 25,47 C37.1502651,47 47,37.1502651 47,25 C47,12.8497349 37.1502651,3 25,3 Z M37,31.9646738 L37,17 L28.262875,25.4642914 L37,31.9646738 Z M13,31.9646738 L21.7369375,25.4633812 L13,17 L13,31.9646738 Z M22.9140156,26.604743 L13,33 L37,33 L27.08575,26.604743 L25,28.625083 L22.9140156,26.604743 Z M13.72,17 L25,26.0581312 L36.28,17 L13.72,17 Z M13.72,17"/>
  </g>
  <g id="rss">
    <path fill-rule="evenodd" d="M50,25 C50,11.1928806 38.8071194,0 25,0 C11.1928806,0 0,11.1928806 0,25 C0,38.8071194 11.1928806,50 25,50 C38.8071194,50 50,38.8071194 50,25 Z M47,25 C47,12.8497349 37.1502651,3 25,3 C12.8497349,3 3,12.8497349 3,25 C3,37.1502651 12.8497349,47 25,47 C37.1502651,47 47,37.1502651 47,25 Z M15.9310647,31.9383671 C15.9310647,33.4789156 17.124854,34.722384 18.5941945,34.722384 C20.0692323,34.722384 21.2608163,33.4789799 21.2608775,31.9383671 C21.2608775,30.4059173 20.0692936,29.1484369 18.5941945,29.1484369 C17.124854,29.1484369 15.9310647,30.4059173 15.9310647,31.9383671 Z M15.9310647,24.8801766 C18.4283003,24.8801766 20.7764883,25.9045951 22.5442915,27.7604778 C24.3102568,29.6124397 25.2845487,32.0872928 25.2845487,34.7164707 L29.1366284,34.7164064 C29.1366284,27.0736971 23.2104415,20.8569335 15.9310647,20.8569335 L15.9310647,24.8801766 Z M15.9310647,17.7475554 C24.8358746,17.7475554 32.0848048,25.3602482 32.0848048,34.7142853 L35.9310647,34.7144139 C35.9310647,23.1426889 26.9580715,13.722384 15.9310647,13.722384 L15.9310647,17.7475554 Z M15.9310647,17.7475554"/>
  </g>
  <g id="twitter">
    <path fill-rule="evenodd" d="M25,50 C38.8071194,50 50,38.8071194 50,25 C50,11.1928806 38.8071194,0 25,0 C11.1928806,0 0,11.1928806 0,25 C0,38.8071194 11.1928806,50 25,50 Z M25,47 C37.1502651,47 47,37.1502651 47,25 C47,12.8497349 37.1502651,3 25,3 C12.8497349,3 3,12.8497349 3,25 C3,37.1502651 12.8497349,47 25,47 Z M24.6822554,20.5542975 L24.729944,21.3761011 L23.9351333,21.2754721 C21.0420225,20.8897275 18.5145246,19.5815504 16.3685358,17.3844837 L15.3193857,16.2943361 L15.0491501,17.0993681 C14.4768864,18.8939188 14.8424993,20.7890985 16.0347153,22.0637326 C16.6705638,22.7681357 16.5274979,22.8687647 15.4306592,22.4494772 C15.0491501,22.3153051 14.7153296,22.2146761 14.6835371,22.2649907 C14.5722637,22.3823912 14.9537728,23.9085978 15.2558008,24.5123719 C15.6691024,25.350947 16.5116017,26.1727505 17.433582,26.6591241 L18.2124965,27.0448686 L17.2905161,27.0616401 C16.4003282,27.0616401 16.3685358,27.0784116 16.4639131,27.4306131 C16.7818374,28.5207608 18.0376382,29.6779944 19.436505,30.1811394 L20.4220701,30.533341 L19.5636746,31.070029 C18.2919776,31.8415181 16.7977335,32.2775772 15.3034895,32.3111202 C14.5881599,32.3278916 14,32.3949776 14,32.4452922 C14,32.6130071 15.939338,33.5522113 17.0679692,33.9211843 C20.4538626,35.0113319 24.4756046,34.5417298 27.4958851,32.6800932 C29.6418739,31.3551445 31.7878628,28.7220188 32.7893242,26.1727505 C33.3297954,24.8142589 33.8702667,22.3320767 33.8702667,21.1413 C33.8702667,20.369811 33.9179553,20.269182 34.8081432,19.3467494 C35.3327183,18.8100613 35.8255009,18.2230588 35.9208782,18.0553437 C36.0798403,17.7366852 36.0639442,17.7366852 35.2532373,18.0218007 C33.9020591,18.5249458 33.7113045,18.4578598 34.3789455,17.7031422 C34.8717281,17.1664541 35.459888,16.1937071 35.459888,15.9085915 C35.459888,15.858277 35.2214448,15.9421346 34.9512092,16.093078 C34.6650773,16.2607931 34.0292288,16.5123656 33.5523424,16.6633091 L32.6939469,16.9484246 L31.9150324,16.394965 C31.4858346,16.093078 30.8817786,15.757648 30.5638543,15.657019 C29.7531474,15.422218 28.5132428,15.455761 27.7820169,15.724105 C25.7949903,16.4788226 24.5391894,18.4243168 24.6822554,20.5542975 C24.6822554,20.5542975 24.5391894,18.4243168 24.6822554,20.5542975 Z M24.6822554,20.5542975"/>
  </g>
</svg>